# xmcd
#
# Track frame offsets:
# 150
# 12980
# 29454
# 43046
# 57618
# 72537
# 86253
# 104189
# 117006
# 130937
# 148469
# 164375
# 189386
# 203995
# 219151
#
# Disc length: 3120 seconds
#
#
# Revision: 0
# Processed by: cddbd v1.4PL0 Copyright (c) Steve Scherf et al.
# Submitted via: FreeRIP 2.53 
#
DISCID=e50c2e0f
DTITLE=Smash Mouth - Smash Mouth
DYEAR=2001
DGENRE=Disco
TTITLE0=Holiday In The Sun
TTITLE1=Your Man
TTITLE2=Pacific Coast Party
TTITLE3=She Turns Me On
TTITLE4=Sister Psychic
TTITLE5=Out Of Sight
TTITLE6=Force Field
TTITLE7=Shoes 'N' Hats
TTITLE8=Hold You High
TTITLE9=The In Set
TTITLE10=Disenchanted
TTITLE11=Keep It Down
TTITLE12=I'm A Believer
TTITLE13=All Star
TTITLE14=Walkin' On The Sun
EXTD=
EXTT0=
EXTT1=
EXTT2=
EXTT3=
EXTT4=
EXTT5=
EXTT6=
EXTT7=
EXTT8=
EXTT9=
EXTT10=
EXTT11=
EXTT12=
EXTT13=
EXTT14=
PLAYORDER=
